# ProBuilder 5.0.6
# https://unity3d.com/unity/features/worldbuilding/probuilder
# 2023/3/2 10:35:39

mtllib ./regii.mtl
o regii

g Cube (2)
v 1.148399 -2.384186E-07 0
v -0.005778909 0 0
v 1.148399 0.1334754 0
v -0.005778909 0.1334757 0
v -0.005778909 0 -0.1124496
v -0.005778909 0.1334757 -0.1124496
v 1.148399 -2.384186E-07 -0.1124496
v 1.148399 0.1334754 -0.1124496
v 1.260325 -2.0416E-07 3.594999
v -1.979312 -2.410179E-07 3.594999
v 1.260325 0.1334755 3.594999
v -1.979312 0.1334754 3.594999
v -1.979312 -2.410179E-07 3.48255
v -1.979312 0.1334754 3.48255
v 1.260325 -2.0416E-07 3.48255
v 1.260325 0.1334755 3.48255
v 0.00800945 -1.109779 3.405004
v 0.007999913 -1.109779 0.1550035
v 0.008009328 -0.1097789 3.405004
v 0.007999791 -0.1097789 0.1550035
v 1.008 -1.109779 0.1550007
v 1.008 -0.1097788 0.1550007
v 1.008009 -1.109779 3.405
v 1.008009 -0.1097788 3.405
v -1.992 -0.1097791 3.594998
v -1.992 -3.617721E-07 3.594998
v 1.258002 -0.1097792 3.594998
v 1.258002 -3.236522E-07 3.594998
v -1.992 -3.617721E-07 2.390098
v 1.258002 -3.236522E-07 2.390098
v -1.992 -0.1097791 2.390098
v 1.258002 -0.1097792 2.390098
v 1.257 -0.1097787 2.391999
v 1.257 3.385367E-08 2.391999
v 1.257009 -0.1097787 -0.1080017
v 1.257009 1.530641E-07 -0.1080017
v -8.034706E-05 -1.192191E-07 2.391996
v -7.081032E-05 -8.622466E-12 -0.1080046
v -8.03337E-05 -0.1097789 2.391996
v -7.079695E-05 -0.1097789 -0.1080046
v 1.14801 -2.178365E-07 3.482486
v 1.148 1.397902E-07 -0.1116199
v 1.14801 0.1334754 3.482486
v 1.148 0.1334758 -0.1116199
v 1.26045 1.534831E-07 -0.1116171
v 1.26045 0.1334758 -0.1116171
v 1.260459 -2.041436E-07 3.482486
v 1.260459 0.1334755 3.482486
v -1.992 -1.109779 3.405
v -1.992 -0.1097787 3.405
v 0.008001343 -1.109779 3.405
v 0.00800146 -0.1097786 3.405
v -1.992 -0.1097787 2.405
v 0.00800146 -0.1097786 2.405
v -1.992 -1.109779 2.405
v 0.008001343 -1.109779 2.405

vt 0.6381099 0.3555474
vt 0.4969462 0.3555474
vt 0.6381099 0.3718724
vt 0.4969462 0.3718724
vt 0.497653 0.3555474
vt 0.4838997 0.3555474
vt 0.497653 0.3718724
vt 0.4838997 0.3718724
vt 0.4983598 0.3555474
vt 0.3571962 0.3555474
vt 0.4983598 0.3718724
vt 0.3571962 0.3718724
vt 0.5114064 0.3555474
vt 0.5114064 0.3718724
vt 0.3571962 0.3417941
vt 0.4983598 0.3417941
vt 0.6381099 0.3417941
vt 0.4969462 0.3417941
vt 0.6381099 0.3466694
vt 0.497653 0.3466694
vt 0.6381099 0.3524563
vt 0.497653 0.3524563
vt 0.4927776 0.3466694
vt 0.4927776 0.3524563
vt 0.3571962 0.3466694
vt 0.3571962 0.3524563
vt 0.5025283 0.3466694
vt 0.5025283 0.3524563
vt 0.497653 0.3417941
vt 0.6381099 0.3850116
vt 0.497653 0.3850116
vt 0.5408705 0.3417941
vt 0.5408705 0.3850116
vt 0.3571962 0.3850116
vt 0.4544355 0.3417941
vt 0.4544355 0.3850116
vt 0.4331739 0.4177718
vt 0.4262515 0.4177718
vt 0.4331739 0.6227077
vt 0.4262515 0.6227077
vt 0.2472923 0.6036534
vt 0.1713145 0.6036534
vt 0.2472923 0.8085893
vt 0.1713145 0.8085893
vt 0.4400962 0.4177718
vt 0.4400962 0.6227077
vt 0.574975 0.7205596
vt 0.4989973 0.7205596
vt 0.574975 0.9254955
vt 0.4989973 0.9254955
vt 0.4331739 0.3417941
vt 0.4400962 0.3417941
vt 0.4262515 0.3417941
vt 0.4511869 0.4357849
vt 0.4429789 0.4357849
vt 0.4511869 0.6227077
vt 0.4429789 0.6227077
vt 0.2653053 0.3979201
vt 0.1713145 0.3979201
vt 0.2653055 0.584843
vt 0.1713147 0.5848429
vt 0.459395 0.4357848
vt 0.459395 0.6227076
vt 0.9840005 0.5279377
vt 0.8900098 0.5279377
vt 0.9840003 0.7148605
vt 0.8900096 0.7148605
vt 0.4511869 0.3417944
vt 0.459395 0.3417944
vt 0.4429789 0.3417941
vt 0.4820366 0.3466772
vt 0.4820366 0.3524734
vt 0.5132693 0.3466772
vt 0.5132693 0.3524734
vt 0.5132693 0.3417941
vt 0.4820367 0.3417941
vt 0.1829092 0.04376183
vt 0.04245241 0.04376183
vt 0.1829092 0.3246756
vt 0.04245241 0.3246756
vt 0.8136646 0.1914107
vt 0.6732078 0.1914107
vt 0.8136646 0.4723244
vt 0.6732078 0.4723244
vt 0.8136646 0.4966954
vt 0.6732078 0.4966954
vt 0.8136646 0.7776091
vt 0.6732078 0.7776091
vt 0.3396767 0.04778275
vt 0.1992199 0.04778275
vt 0.3396767 0.3286964
vt 0.1992199 0.3286964
vt 0.3660061 0.197016
vt 0.5064629 0.197016
vt 0.3660061 0.05655923
vt 0.5064629 0.05655923
vt 0.4493824 0.7279582
vt 0.3089256 0.7279582
vt 0.4493824 0.868415
vt 0.3089256 0.868415

vn 0 0 1
vn -1 0 0
vn 0 0 -1
vn 1 0 0
vn 2.065701E-07 1 0
vn -2.065701E-07 -1 0

usemtl DefaultHDMaterial
f 3/3/1 4/4/1 2/2/1 1/1/1
f 4/7/2 6/8/2 5/6/2 2/5/2
f 6/11/3 8/12/3 7/10/3 5/9/3
f 8/14/4 3/7/4 1/5/4 7/13/4
f 8/15/5 6/16/5 4/9/5 3/10/5
f 1/1/6 2/2/6 5/18/6 7/17/6
f 11/21/1 12/22/1 10/20/1 9/19/1
f 12/22/2 14/24/2 13/23/2 10/20/2
f 14/22/3 16/26/3 15/25/3 13/20/3
f 16/28/4 11/22/4 9/20/4 15/27/4
f 16/15/5 14/29/5 12/20/5 11/25/5
f 9/19/6 10/20/6 13/29/6 15/17/6
f 27/39/1 28/40/1 26/38/1 25/37/1
f 28/43/5 30/44/5 29/42/5 26/41/5
f 30/46/3 32/39/3 31/37/3 29/45/3
f 32/49/6 27/50/6 25/48/6 31/47/6
f 32/51/4 30/52/4 28/45/4 27/37/4
f 25/37/2 26/38/2 29/53/2 31/51/2
f 35/56/4 36/57/4 34/55/4 33/54/4
f 36/60/5 38/61/5 37/59/5 34/58/5
f 38/63/2 40/56/2 39/54/2 37/62/2
f 40/66/6 35/67/6 33/65/6 39/64/6
f 40/68/3 38/69/3 36/62/3 35/54/3
f 33/54/1 34/55/1 37/70/1 39/68/1
f 51/79/1 52/80/1 50/78/1 49/77/1
f 52/83/5 54/84/5 53/82/5 50/81/5
f 54/87/3 56/88/3 55/86/3 53/85/3
f 56/91/6 51/92/6 49/90/6 55/89/6
f 56/95/4 54/96/4 52/94/4 51/93/4
f 49/99/2 50/100/2 53/98/2 55/97/2

usemtl shelf
f 19/30/2 20/31/2 18/29/2 17/17/2
f 20/33/3 22/31/3 21/29/3 18/32/3
f 22/31/4 24/34/4 23/15/4 21/29/4
f 24/31/1 19/36/1 17/35/1 23/29/1
f 24/15/5 22/29/5 20/31/5 19/34/5
f 17/30/6 18/31/6 21/29/6 23/17/6

usemtl Vitamin
f 43/21/2 44/72/2 42/71/2 41/19/2
f 44/22/3 46/24/3 45/23/3 42/20/3
f 46/74/4 48/26/4 47/25/4 45/73/4
f 48/28/1 43/22/1 41/20/1 47/27/1
f 48/15/5 46/75/5 44/73/5 43/25/5
f 41/19/6 42/71/6 45/76/6 47/17/6

