# ProBuilder 5.0.6
# https://unity3d.com/unity/features/worldbuilding/probuilder
# 3/1/2023 6:11:54 PM

mtllib ./Counter.mtl
o Counter

g Cube
v 0 2.875 0
v 0 3.75 0
v 0 3.75 0.5
v 0 2.875 0.5
v 5.5 2.875 0.5
v 5.5 3.75 0.5
v 5.5 3.75 0
v 5.5 2.875 0
v 5.5 0 0.5
v 4.499484 0 0.5
v 4.499484 1.3125 0.5
v 5.5 1.3125 0.5
v 2.75 0 0.5
v 2.75 1.3125 0.5
v 4.499484 2.875 0.5
v 1.375 0 0.5
v 1.375 1.3125 0.5
v 0 0 0.5
v 0 1.3125 0.5
v 2.75 2.875 0.5
v 1.375 2.875 0.5
v 1.375 3.75 0.5
v 2.75 3.75 0.5
v 4.499484 3.75 0.5
v 0 0 0
v 0 1.3125 0
v 2.75 0 0
v 2.75 1.3125 0
v 1.375 1.3125 0
v 1.375 0 0
v 5.5 0 0
v 5.5 1.3125 0
v 4.499484 1.3125 0
v 4.499484 0 0
v 4.499484 2.875 0
v 4.499484 3.75 0
v 2.75 3.75 0
v 2.75 2.875 0
v 1.375 3.75 0
v 1.375 2.875 0
v 1.375 1.3125 0.5078125
v 2.75 1.3125 0.5078125
v 1.375 2.875 0.5078125
v 0 2.875 0.5078125
v 0 1.3125 0.5078125
v 4.499484 1.3125 0.5078125
v 2.75 2.875 0.5078125
v 4.499484 2.875 0.5078125
v -0.5 2.875 9
v -0.5 3.75 9
v 0 3.75 9
v 0 2.875 9
v -0.5 3.75 0
v -0.5 2.875 0
v 0 0 9
v -0.5 0 9
v -0.5 1.3125 9
v 0 1.3125 9
v -0.5 0 8
v -0.5 1.3125 8
v -0.5 0 4.5
v -0.5 1.3125 4.5
v -0.5 2.875 8
v -0.5 0 2.25
v -0.5 1.3125 2.25
v -0.5 0 0
v -0.5 1.3125 0
v -0.5 2.875 4.5
v -0.5 2.875 2.25
v -0.5 3.75 2.25
v -0.5 3.75 4.5
v -0.5 3.75 8
v 0 0 4.5
v 0 1.3125 4.5
v 0 1.3125 2.25
v 0 0 2.25
v 0 1.3125 8
v 0 0 8
v 0 2.875 8
v 0 3.75 8
v 0 3.75 4.5
v 0 2.875 4.5
v 0 3.75 2.25
v 0 2.875 2.25
v 0.01298809 1.3125 8
v 0.01298809 1.3125 4.5
v 0.01298809 2.875 2.25
v 0.01298809 2.875 4.5
v 0.01298809 2.875 8
v 0.01298809 1.3125 2.25
v 0.01298809 2.875 0
v 0.01298809 1.3125 0

vt 0.5 0.2757863
vt 0.5 0.3553318
vt 0.5454546 0.3553318
vt 0.5454546 0.2757863
vt 0.09248818 0.08064765
vt 0.01294269 0.08064765
vt 0.01294269 0.1261021
vt 0.09248818 0.1261021
vt 0.5398827 0.6414993
vt 0.4489266 0.6414993
vt 0.4489266 0.7608175
vt 0.5398827 0.7608175
vt 0.2898825 0.6414993
vt 0.2898825 0.7608175
vt 0.4489265 0.902863
vt 0.5398827 0.902863
vt 0.1648824 0.6414993
vt 0.1648824 0.7608175
vt 0.03988236 0.6414993
vt 0.03988236 0.7608175
vt 0.2898825 0.902863
vt 0.1648824 0.902863
vt 0.1648824 0.9824085
vt 0.2898825 0.9824085
vt 0.03988236 0.902863
vt 0.03988236 0.9824085
vt 0.4489266 0.9824085
vt 0.5398827 0.9824085
vt 0.5454546 0.01442268
vt 0.5 0.01442268
vt 0.5 0.1337409
vt 0.5454546 0.1337409
vt 0.3538519 0.3761023
vt 0.2345337 0.3761023
vt 0.2345337 0.5011024
vt 0.3538519 0.5011024
vt 0.2345337 0.6261024
vt 0.3538519 0.6261024
vt 0.3538519 0.1261021
vt 0.2345337 0.1261021
vt 0.2345337 0.2170582
vt 0.3538519 0.2170582
vt 0.09248818 0.2170582
vt 0.01294269 0.2170582
vt 0.01294269 0.3761023
vt 0.09248818 0.3761023
vt 0.01294269 0.5011024
vt 0.09248818 0.5011024
vt 0.01294263 0.6261023
vt 0.09248812 0.6261023
vt 0.3538519 0.08064765
vt 0.2345337 0.08064765
vt 0.25 0.01442268
vt 0.090956 0.01442268
vt 0.090956 0.05987723
vt 0.25 0.05987723
vt 0 0.01442268
vt 0 0.05987723
vt 0.375 0.01442268
vt 0.375 0.05987723
vt 0.5 0.05987723
vt 0.75 0.01442268
vt 0.75 0.05987723
vt 0.909044 0.05987723
vt 0.909044 0.01442268
vt 1 0.05987723
vt 1 0.01442268
vt 0.625 0.05987723
vt 0.625 0.01442268
vt 0.642853 0.8622452
vt 0.642853 0.7450578
vt 0.5995736 0.8622452
vt 0.5995736 0.7450578
vt 0.642853 0.1964954
vt 0.642853 0.07930797
vt 0.5995736 0.1964954
vt 0.5995736 0.07930797
vt 0.642853 0.9794327
vt 0.5995736 0.9794327
vt 0.642853 0.5959541
vt 0.5995736 0.5959541
vt 0.642853 0.3136829
vt 0.5995736 0.3136829
vt 0.642853 0.4627866
vt 0.5995736 0.4627866
vt 0.9699559 0.4593333
vt 0.9699559 0.4931332
vt 0.9892701 0.4931332
vt 0.9892701 0.4593333
vt 0.8878789 0.5102344
vt 0.9330721 0.5102344
vt 0.9330721 0.4844097
vt 0.8878789 0.4844097
vt 0.9892701 0.3482764
vt 0.9699559 0.3482764
vt 0.9699559 0.3989764
vt 0.9892701 0.3989764
vt 0.7393871 0.01956576
vt 0.7393871 0.07121512
vt 0.8071768 0.07121512
vt 0.8071768 0.01956576
vt 0.739387 0.2519877
vt 0.8071768 0.2519877
vt 0.8878788 0.07121512
vt 0.8878788 0.01956576
vt 0.739387 0.3681988
vt 0.8071768 0.3681988
vt 0.739387 0.4844099
vt 0.8071768 0.4844099
vt 0.8878788 0.2519877
vt 0.8878788 0.3681986
vt 0.9330719 0.3681986
vt 0.9330719 0.2519877
vt 0.9330719 0.07121512
vt 0.9330719 0.01956576
vt 0.739387 0.5102345
vt 0.8071768 0.5102345
vt 0.739387 0.7426566
vt 0.8071768 0.7426566
vt 0.8071768 0.6264455
vt 0.739387 0.6264455
vt 0.7393871 0.9750787
vt 0.8071769 0.9750787
vt 0.8071769 0.9234294
vt 0.7393871 0.9234294
vt 0.887879 0.9750787
vt 0.887879 0.9234294
vt 0.9330721 0.9750787
vt 0.9330721 0.9234294
vt 0.9330721 0.7426566
vt 0.8878789 0.7426566
vt 0.9330721 0.6264455
vt 0.8878789 0.6264455
vt 0.9699559 0.1744484
vt 0.9506416 0.1744484
vt 0.9506416 0.309648
vt 0.9699559 0.309648
vt 0.9506416 0.3482764
vt 0.9699559 0.000620231
vt 0.9506416 0.000620231
vt 0.9506416 0.08753429
vt 0.9699559 0.08753429
vt 0.9892701 0.08753429
vt 0.9892701 0.000620231
vt 0.9892701 0.1744484
vt 0.9892701 0.309648
vt 0.7067323 0.4444446
vt 0.7067323 0.2500002
vt 0.678233 0.4444446
vt 0.678233 0.2500002
vt 0.7067323 0.8506945
vt 0.7067323 0.7256947
vt 0.678233 0.8506945
vt 0.678233 0.7256947
vt 0.7067323 0.5312501
vt 0.678233 0.5312501
vt 0.7067323 0.1250002
vt 0.678233 0.1250002
vt 0.7067323 0.9756943
vt 0.678233 0.9756943
vt 0.7067323 2.086163E-07
vt 0.678233 2.086163E-07

vn -1 0 0
vn 1 0 0
vn 0 0 1
vn 0 0 -1
vn 0 1 0
vn 0 -1 0

usemtl DefaultHDMaterial
f 3/3/1 2/2/1 1/1/1 4/4/1
f 8/8/2 7/7/2 6/6/2 5/5/2
f 12/12/3 11/11/3 10/10/3 9/9/3
f 11/11/3 14/14/3 13/13/3 10/10/3
f 5/16/3 15/15/3 11/11/3 12/12/3
f 14/14/3 17/18/3 16/17/3 13/13/3
f 17/18/3 19/20/3 18/19/3 16/17/3
f 23/24/3 22/23/3 21/22/3 20/21/3
f 22/23/3 3/26/3 4/25/3 21/22/3
f 6/28/3 24/27/3 15/15/3 5/16/3
f 24/27/3 23/24/3 20/21/3 15/15/3
f 19/32/1 26/31/1 25/30/1 18/29/1
f 30/36/4 29/35/4 28/34/4 27/33/4
f 25/38/4 26/37/4 29/35/4 30/36/4
f 34/42/4 33/41/4 32/40/4 31/39/4
f 33/41/4 35/43/4 8/8/4 32/40/4
f 27/33/4 28/34/4 33/41/4 34/42/4
f 35/43/4 36/44/4 7/7/4 8/8/4
f 38/46/4 37/45/4 36/44/4 35/43/4
f 40/48/4 39/47/4 37/45/4 38/46/4
f 1/50/4 2/49/4 39/47/4 40/48/4
f 31/39/2 32/40/2 12/52/2 9/51/2
f 32/40/2 8/8/2 5/5/2 12/52/2
f 23/56/5 24/55/5 36/54/5 37/53/5
f 24/55/5 6/58/5 7/57/5 36/54/5
f 3/61/5 22/60/5 39/59/5 2/30/5
f 22/60/5 23/56/5 37/53/5 39/59/5
f 34/65/6 10/64/6 13/63/6 27/62/6
f 31/67/6 9/66/6 10/64/6 34/65/6
f 30/69/6 16/68/6 18/61/6 25/30/6
f 27/62/6 13/63/6 16/68/6 30/69/6
f 41/72/5 42/73/5 28/71/5 29/70/5
f 43/76/6 44/77/6 1/75/6 40/74/6
f 45/79/5 41/72/5 29/70/5 26/78/5
f 42/73/5 46/81/5 33/80/5 28/71/5
f 47/83/6 43/76/6 40/74/6 38/82/6
f 46/81/1 48/85/1 35/84/1 33/80/1
f 48/85/6 47/83/6 38/82/6 35/84/6
f 51/88/3 50/87/3 49/86/3 52/89/3
f 54/93/4 53/92/4 2/91/4 1/90/4
f 58/97/3 57/96/3 56/95/3 55/94/3
f 52/89/3 49/86/3 57/96/3 58/97/3
f 57/101/1 60/100/1 59/99/1 56/98/1
f 60/100/1 62/103/1 61/102/1 59/99/1
f 49/105/1 63/104/1 60/100/1 57/101/1
f 62/103/1 65/107/1 64/106/1 61/102/1
f 65/107/1 67/109/1 66/108/1 64/106/1
f 71/113/1 70/112/1 69/111/1 68/110/1
f 70/112/1 53/92/1 54/93/1 69/111/1
f 50/115/1 72/114/1 63/104/1 49/105/1
f 72/114/1 71/113/1 68/110/1 63/104/1
f 66/108/4 67/109/4 26/117/4 25/116/4
f 76/121/2 75/120/2 74/119/2 73/118/2
f 25/116/2 26/117/2 75/120/2 76/121/2
f 78/125/2 77/124/2 58/123/2 55/122/2
f 77/124/2 79/127/2 52/126/2 58/123/2
f 73/118/2 74/119/2 77/124/2 78/125/2
f 79/127/2 80/129/2 51/128/2 52/126/2
f 82/131/2 81/130/2 80/129/2 79/127/2
f 84/133/2 83/132/2 81/130/2 82/131/2
f 1/90/2 2/91/2 83/132/2 84/133/2
f 72/137/5 80/136/5 81/135/5 71/134/5
f 50/95/5 51/138/5 80/136/5 72/137/5
f 70/142/5 83/141/5 2/140/5 53/139/5
f 71/134/5 81/135/5 83/141/5 70/142/5
f 25/144/6 76/143/6 64/142/6 66/139/6
f 76/143/6 73/145/6 61/134/6 64/142/6
f 73/145/6 78/146/6 59/137/6 61/134/6
f 78/146/6 55/94/6 56/95/6 59/137/6
f 85/149/5 86/150/5 62/148/5 60/147/5
f 87/153/6 88/154/6 68/152/6 69/151/6
f 89/156/4 85/149/4 60/147/4 63/155/4
f 88/154/6 89/156/6 63/155/6 68/152/6
f 86/150/5 90/158/5 65/157/5 62/148/5
f 91/160/6 87/153/6 69/151/6 54/159/6
f 90/158/5 92/162/5 67/161/5 65/157/5

