# ProBuilder 5.0.6
# https://unity3d.com/unity/features/worldbuilding/probuilder
# 2023/3/2 11:15:04

mtllib ./Cube_(2).mtl
o Cube (2)

g Cube (2)
v 3.140399 1.109779 8.845
v 1.986221 1.109779 8.845
v 3.140399 1.243254 8.845
v 1.986221 1.243255 8.845
v 1.986221 1.109779 8.732551
v 1.986221 1.243255 8.732551
v 3.140399 1.109779 8.732551
v 3.140399 1.243254 8.732551
v 3.252325 1.109779 12.44
v 0.01268768 1.109779 12.44
v 3.252325 1.243254 12.44
v 0.0126877 1.243255 12.44
v 0.01268768 1.109779 12.32755
v 0.0126877 1.243255 12.32755
v 3.252325 1.109779 12.32755
v 3.252325 1.243254 12.32755
v 2.000009 -9.752985E-10 12.25
v 2 -9.741374E-10 9.000004
v 2.000009 1 12.25
v 2 1 9.000004
v 3 -3.53334E-09 9.000001
v 3 1 9.000001
v 3.000009 -3.534501E-09 12.25
v 3.000009 1 12.25
v 4.634695E-07 1 12.44
v 4.768371E-07 1.109779 12.44
v 3.250002 0.9999995 12.44
v 3.250002 1.109778 12.44
v 4.768371E-07 1.109779 11.2351
v 3.250002 1.109778 11.2351
v 4.634695E-07 1 11.2351
v 3.250002 0.9999995 11.2351
v 3.249 1 11.237
v 3.249 1.109779 11.237
v 3.249009 1 8.736999
v 3.249009 1.109779 8.736999
v 1.99192 1.109779 11.237
v 1.991929 1.109779 8.736996
v 1.99192 1 11.237
v 1.991929 1 8.736996
v 3.14001 1.109779 12.32749
v 3.14 1.109779 8.73338
v 3.14001 1.243254 12.32749
v 3.14 1.243255 8.73338
v 3.25245 1.109779 8.733383
v 3.25245 1.243255 8.733383
v 3.252459 1.109779 12.32749
v 3.252459 1.243254 12.32749
v 1.032825E-07 2.425628E-07 12.25
v 2.25051E-07 1 12.25
v 2.25051E-07 1 11.25
v 2.000001 1 11.25
v 1.032825E-07 2.425628E-07 11.25
v 2.000001 -9.743115E-10 11.25

vt 0.6776556 0.1132777
vt 0.5277284 0.1132778
vt 0.6776556 0.1306162
vt 0.5277284 0.1306162
vt 0.6185175 0.4234107
vt 0.6039104 0.4234107
vt 0.6185175 0.4407491
vt 0.6039104 0.4407491
vt 0.4807571 0.2927711
vt 0.3308299 0.2927711
vt 0.4807571 0.3101095
vt 0.3308299 0.3101095
vt 0.498067 0.4521251
vt 0.4834598 0.4521251
vt 0.498067 0.4694636
vt 0.4834598 0.4694636
vt 0.849613 0.2608056
vt 0.9995402 0.2608056
vt 0.849613 0.2461984
vt 0.9995402 0.2461984
vt 0.6579721 0.2905706
vt 0.508045 0.2905706
vt 0.6579721 0.3051777
vt 0.508045 0.3051777
vt 0.6630392 0.2577449
vt 0.5138627 0.2577449
vt 0.6630392 0.2638911
vt 0.5138627 0.2638911
vt 0.4834597 0.3489537
vt 0.4782817 0.3489537
vt 0.4834597 0.3550998
vt 0.4782817 0.3550998
vt 0.4834598 0.3794465
vt 0.3342833 0.3794465
vt 0.4834598 0.3855927
vt 0.3342833 0.3855927
vt 0.4886377 0.3489537
vt 0.4886377 0.3550998
vt 0.2092625 0.3611508
vt 0.358439 0.3611508
vt 0.2092625 0.3559728
vt 0.358439 0.3559728
vt 0.6503713 0.2272311
vt 0.5011948 0.2272311
vt 0.6503713 0.2324091
vt 0.5011948 0.2324091
vt 0.6614555 0
vt 0.5122791 0
vt 0.6614555 0.04590045
vt 0.5122791 0.04590045
vt 0.5493689 0.5388593
vt 0.5034685 0.5388593
vt 0.5493689 0.5847597
vt 0.5034685 0.5847597
vt 0.1726677 0.3437757
vt 0.0234912 0.3437757
vt 0.1726677 0.3896761
vt 0.0234912 0.3896761
vt 0.559431 0.4577328
vt 0.5135306 0.4577328
vt 0.559431 0.5036332
vt 0.5135306 0.5036332
vt 0.3411898 0.275719
vt 0.4903663 0.275719
vt 0.3411898 0.2298186
vt 0.4903663 0.2298186
vt 0.8527305 0.02363851
vt 0.7035539 0.02363851
vt 0.8527305 0.06953897
vt 0.7035539 0.06953897
vt 0.3516383 0.4244702
vt 0.3442861 0.4244702
vt 0.3516383 0.6421286
vt 0.3442861 0.6421286
vt 0.2175564 0.6218914
vt 0.136862 0.6218914
vt 0.2175564 0.8395499
vt 0.136862 0.8395499
vt 0.3235202 0.4244702
vt 0.3161682 0.4244702
vt 0.3235202 0.6421286
vt 0.3161682 0.6421286
vt 0.565582 0.7460552
vt 0.4848875 0.7460552
vt 0.565582 0.9637136
vt 0.4848875 0.9637136
vt 0.9028639 0.4244701
vt 0.910216 0.4244701
vt 0.9028639 0.3437756
vt 0.910216 0.3437756
vt 0.948603 0.3437756
vt 0.9412509 0.3437756
vt 0.948603 0.4244701
vt 0.9412509 0.4244701
vt 0.3733031 0.4436015
vt 0.3645855 0.4436015
vt 0.3733031 0.6421286
vt 0.3645855 0.6421286
vt 0.2366877 0.4033861
vt 0.136862 0.403386
vt 0.2366879 0.6019132
vt 0.1368622 0.6019132
vt 0.3946887 0.4436013
vt 0.3859711 0.4436013
vt 0.3946887 0.6421285
vt 0.3859711 0.6421285
vt 1 0.5414752
vt 0.9001743 0.5414752
vt 0.9999998 0.7400023
vt 0.9001741 0.7400023
vt 0.4585034 0.5198339
vt 0.467221 0.5198339
vt 0.4585034 0.4200082
vt 0.467221 0.4200082
vt 0.4402075 0.4687965
vt 0.4314899 0.4687965
vt 0.4402075 0.5686222
vt 0.4314899 0.5686222
vt 0.6503713 0.2020145
vt 0.4846088 0.2020145
vt 0.6503713 0.2081705
vt 0.4846088 0.2081705
vt 0.5000455 0.3276169
vt 0.3342832 0.3276169
vt 0.5000455 0.3337729
vt 0.3342832 0.3337729
vt 0.3342832 0.3733562
vt 0.5000456 0.3733562
vt 0.3342832 0.36817
vt 0.5000455 0.3681699
vt 0.6326362 0.3193814
vt 0.4668739 0.3193813
vt 0.6326362 0.3245676
vt 0.4668737 0.3245676
vt 0.1491765 0.02724141
vt 0 0.02724141
vt 0.1491765 0.3255944
vt 0 0.3255944
vt 0.8190895 0.1840564
vt 0.6699131 0.1840564
vt 0.8190895 0.4824094
vt 0.6699131 0.4824094
vt 0.8190895 0.5082933
vt 0.6699131 0.5082933
vt 0.8190895 0.8066464
vt 0.6699131 0.8066464
vt 0.3156762 0.03151194
vt 0.1664997 0.03151194
vt 0.3156762 0.3298649
vt 0.1664997 0.3298649
vt 0.3436401 0.1900097
vt 0.4928166 0.1900097
vt 0.3436401 0.04083328
vt 0.4928166 0.04083328
vt 0.4321925 0.7539131
vt 0.2830161 0.7539131
vt 0.4321925 0.9030896
vt 0.2830161 0.9030896

vn 0 0 1
vn -1 1.217685E-07 0
vn 0 0 -1
vn 1 -1.217685E-07 0
vn 3.283386E-07 1 0
vn -3.283386E-07 -1 0

usemtl New_Material
f 3/3/1 4/4/1 2/2/1 1/1/1
f 4/7/2 6/8/2 5/6/2 2/5/2
f 6/11/3 8/12/3 7/10/3 5/9/3
f 8/15/4 3/16/4 1/14/4 7/13/4
f 8/19/5 6/20/5 4/18/5 3/17/5
f 1/23/6 2/24/6 5/22/6 7/21/6
f 11/27/1 12/28/1 10/26/1 9/25/1
f 12/31/2 14/32/2 13/30/2 10/29/2
f 14/35/3 16/36/3 15/34/3 13/33/3
f 16/38/4 11/31/4 9/29/4 15/37/4
f 16/41/5 14/42/5 12/40/5 11/39/5
f 9/45/6 10/46/6 13/44/6 15/43/6
f 27/73/1 28/74/1 26/72/1 25/71/1
f 28/77/5 30/78/5 29/76/5 26/75/5
f 30/81/3 32/82/3 31/80/3 29/79/3
f 32/85/6 27/86/6 25/84/6 31/83/6
f 32/89/4 30/90/4 28/88/4 27/87/4
f 25/93/2 26/94/2 29/92/2 31/91/2
f 35/97/4 36/98/4 34/96/4 33/95/4
f 36/101/5 38/102/5 37/100/5 34/99/5
f 38/105/2 40/106/2 39/104/2 37/103/2
f 40/109/6 35/110/6 33/108/6 39/107/6
f 40/113/3 38/114/3 36/112/3 35/111/3
f 33/117/1 34/118/1 37/116/1 39/115/1
f 17/137/1 19/138/1 50/136/1 49/135/1
f 19/141/5 52/142/5 51/140/5 50/139/5
f 52/145/3 54/146/3 53/144/3 51/143/3
f 54/149/6 17/150/6 49/148/6 53/147/6
f 54/153/4 52/154/4 19/152/4 17/151/4
f 49/157/2 50/158/2 51/156/2 53/155/2

usemtl shelf
f 19/49/2 20/50/2 18/48/2 17/47/2
f 20/53/3 22/54/3 21/52/3 18/51/3
f 22/57/4 24/58/4 23/56/4 21/55/4
f 24/61/1 19/62/1 17/60/1 23/59/1
f 24/65/5 22/66/5 20/64/5 19/63/5
f 17/69/6 18/70/6 21/68/6 23/67/6

usemtl Vitamin
f 43/121/2 44/122/2 42/120/2 41/119/2
f 44/31/3 46/32/3 45/30/3 42/29/3
f 46/125/4 48/126/4 47/124/4 45/123/4
f 48/38/1 43/31/1 41/29/1 47/37/1
f 48/129/5 46/130/5 44/128/5 43/127/5
f 41/133/6 42/134/6 45/132/6 47/131/6

