# ProBuilder 5.0.6
# https://unity3d.com/unity/features/worldbuilding/probuilder
# 2023/3/2 10:48:06

mtllib ./reg3.mtl
o reg3

g Cube (2)
v 1.148399 -2.384186E-07 0
v -0.005778909 0 0
v 1.148399 0.1334754 0
v -0.005778909 0.1334757 0
v -0.005778909 0 -0.1124496
v -0.005778909 0.1334757 -0.1124496
v 1.148399 -2.384186E-07 -0.1124496
v 1.148399 0.1334754 -0.1124496
v 1.260325 -2.0416E-07 3.594999
v -1.979312 -2.410179E-07 3.594999
v 1.260325 0.1334755 3.594999
v -1.979312 0.1334754 3.594999
v -1.979312 -2.410179E-07 3.48255
v -1.979312 0.1334754 3.48255
v 1.260325 -2.0416E-07 3.48255
v 1.260325 0.1334755 3.48255
v 0.00800945 -1.109779 3.405004
v 0.007999913 -1.109779 0.1550035
v 0.008009328 -0.1097789 3.405004
v 0.007999791 -0.1097789 0.1550035
v 1.008 -1.109779 0.1550007
v 1.008 -0.1097788 0.1550007
v 1.008009 -1.109779 3.405
v 1.008009 -0.1097788 3.405
v -1.992 -0.1097791 3.594998
v -1.992 -3.617721E-07 3.594998
v 1.258002 -0.1097792 3.594998
v 1.258002 -3.236522E-07 3.594998
v -1.992 -3.617721E-07 2.390098
v 1.258002 -3.236522E-07 2.390098
v -1.992 -0.1097791 2.390098
v 1.258002 -0.1097792 2.390098
v 1.257 -0.1097787 2.391999
v 1.257 3.385367E-08 2.391999
v 1.257009 -0.1097787 -0.1080017
v 1.257009 1.530641E-07 -0.1080017
v -8.034706E-05 -1.192191E-07 2.391996
v -7.081032E-05 -8.622466E-12 -0.1080046
v -8.03337E-05 -0.1097789 2.391996
v -7.079695E-05 -0.1097789 -0.1080046
v 1.14801 -2.178365E-07 3.482486
v 1.148 1.397902E-07 -0.1116199
v 1.14801 0.1334754 3.482486
v 1.148 0.1334758 -0.1116199
v 1.26045 1.534831E-07 -0.1116171
v 1.26045 0.1334758 -0.1116171
v 1.260459 -2.041436E-07 3.482486
v 1.260459 0.1334755 3.482486
v -1.992 -1.109779 3.405
v -1.992 -0.1097787 3.405
v 0.008001343 -1.109779 3.405
v 0.00800146 -0.1097786 3.405
v -1.992 -0.1097787 2.405
v 0.00800146 -0.1097786 2.405
v -1.992 -1.109779 2.405
v 0.008001343 -1.109779 2.405

vt 0.6804977 0.1247692
vt 0.5393341 0.1247692
vt 0.6804977 0.1410942
vt 0.5393341 0.1410942
vt 0.6248164 0.4167743
vt 0.6110631 0.4167743
vt 0.6248164 0.4330992
vt 0.6110631 0.4330992
vt 0.4951083 0.2937708
vt 0.3539447 0.2937708
vt 0.4951083 0.3100958
vt 0.3539447 0.3100958
vt 0.5114064 0.3555474
vt 0.497653 0.3555474
vt 0.5114064 0.3718724
vt 0.497653 0.3718724
vt 0.3571962 0.3555474
vt 0.4983598 0.3555474
vt 0.3571962 0.3417941
vt 0.4983598 0.3417941
vt 0.6381099 0.3417941
vt 0.4969462 0.3417941
vt 0.6381099 0.3555474
vt 0.4969462 0.3555474
vt 0.6381099 0.3466694
vt 0.497653 0.3466694
vt 0.6381099 0.3524563
vt 0.497653 0.3524563
vt 0.4927776 0.3466694
vt 0.4927776 0.3524563
vt 0.3571962 0.3466694
vt 0.3571962 0.3524563
vt 0.5025283 0.3466694
vt 0.5025283 0.3524563
vt 0.497653 0.3417941
vt 0.6652446 0.01811274
vt 0.5247878 0.01811274
vt 0.6652446 0.06133022
vt 0.5247878 0.06133022
vt 0.5597097 0.5254747
vt 0.5164922 0.5254747
vt 0.5597097 0.5686921
vt 0.5164922 0.5686921
vt 0.2050273 0.3417941
vt 0.0645705 0.3417941
vt 0.2050273 0.3850116
vt 0.0645705 0.3850116
vt 0.5691836 0.4490902
vt 0.5259662 0.4490902
vt 0.5691836 0.4923077
vt 0.5259662 0.4923077
vt 0.363699 0.2777155
vt 0.5041559 0.2777155
vt 0.363699 0.234498
vt 0.5041559 0.234498
vt 0.8453391 0.04036954
vt 0.7048823 0.04036954
vt 0.8453391 0.08358702
vt 0.7048823 0.08358702
vt 0.4331739 0.4177718
vt 0.4262515 0.4177718
vt 0.4331739 0.6227077
vt 0.4262515 0.6227077
vt 0.2472923 0.6036534
vt 0.1713145 0.6036534
vt 0.2472923 0.8085893
vt 0.1713145 0.8085893
vt 0.4400962 0.4177718
vt 0.4400962 0.6227077
vt 0.574975 0.7205596
vt 0.4989973 0.7205596
vt 0.574975 0.9254955
vt 0.4989973 0.9254955
vt 0.4331739 0.3417941
vt 0.4400962 0.3417941
vt 0.4262515 0.3417941
vt 0.4511869 0.4357849
vt 0.4429789 0.4357849
vt 0.4511869 0.6227077
vt 0.4429789 0.6227077
vt 0.2653053 0.3979201
vt 0.1713145 0.3979201
vt 0.2653055 0.584843
vt 0.1713147 0.5848429
vt 0.459395 0.4357848
vt 0.459395 0.6227076
vt 0.9840005 0.5279377
vt 0.8900098 0.5279377
vt 0.9840003 0.7148605
vt 0.8900096 0.7148605
vt 0.4511869 0.3417944
vt 0.459395 0.3417944
vt 0.4429789 0.3417941
vt 0.4820366 0.3466772
vt 0.4820366 0.3524734
vt 0.5132693 0.3466772
vt 0.5132693 0.3524734
vt 0.5132693 0.3417941
vt 0.4820367 0.3417941
vt 0.1829092 0.04376183
vt 0.04245241 0.04376183
vt 0.1829092 0.3246756
vt 0.04245241 0.3246756
vt 0.8136646 0.1914107
vt 0.6732078 0.1914107
vt 0.8136646 0.4723244
vt 0.6732078 0.4723244
vt 0.8136646 0.4966954
vt 0.6732078 0.4966954
vt 0.8136646 0.7776091
vt 0.6732078 0.7776091
vt 0.3396767 0.04778275
vt 0.1992199 0.04778275
vt 0.3396767 0.3286964
vt 0.1992199 0.3286964
vt 0.3660061 0.197016
vt 0.5064629 0.197016
vt 0.3660061 0.05655923
vt 0.5064629 0.05655923
vt 0.4493824 0.7279582
vt 0.3089256 0.7279582
vt 0.4493824 0.868415
vt 0.3089256 0.868415

vn 0 0 1
vn -1 0 0
vn 0 0 -1
vn 1 0 0
vn 2.065701E-07 1 0
vn -2.065701E-07 -1 0

usemtl New_Material
f 3/3/1 4/4/1 2/2/1 1/1/1
f 4/7/2 6/8/2 5/6/2 2/5/2
f 6/11/3 8/12/3 7/10/3 5/9/3
f 8/15/4 3/16/4 1/14/4 7/13/4
f 8/19/5 6/20/5 4/18/5 3/17/5
f 1/23/6 2/24/6 5/22/6 7/21/6
f 11/27/1 12/28/1 10/26/1 9/25/1
f 12/28/2 14/30/2 13/29/2 10/26/2
f 14/28/3 16/32/3 15/31/3 13/26/3
f 16/34/4 11/28/4 9/26/4 15/33/4
f 16/19/5 14/35/5 12/26/5 11/31/5
f 9/25/6 10/26/6 13/35/6 15/21/6
f 27/62/1 28/63/1 26/61/1 25/60/1
f 28/66/5 30/67/5 29/65/5 26/64/5
f 30/69/3 32/62/3 31/60/3 29/68/3
f 32/72/6 27/73/6 25/71/6 31/70/6
f 32/74/4 30/75/4 28/68/4 27/60/4
f 25/60/2 26/61/2 29/76/2 31/74/2
f 35/79/4 36/80/4 34/78/4 33/77/4
f 36/83/5 38/84/5 37/82/5 34/81/5
f 38/86/2 40/79/2 39/77/2 37/85/2
f 40/89/6 35/90/6 33/88/6 39/87/6
f 40/91/3 38/92/3 36/85/3 35/77/3
f 33/77/1 34/78/1 37/93/1 39/91/1
f 51/102/1 52/103/1 50/101/1 49/100/1
f 52/106/5 54/107/5 53/105/5 50/104/5
f 54/110/3 56/111/3 55/109/3 53/108/3
f 56/114/6 51/115/6 49/113/6 55/112/6
f 56/118/4 54/119/4 52/117/4 51/116/4
f 49/122/2 50/123/2 53/121/2 55/120/2

usemtl shelf
f 19/38/2 20/39/2 18/37/2 17/36/2
f 20/42/3 22/43/3 21/41/3 18/40/3
f 22/46/4 24/47/4 23/45/4 21/44/4
f 24/50/1 19/51/1 17/49/1 23/48/1
f 24/54/5 22/55/5 20/53/5 19/52/5
f 17/58/6 18/59/6 21/57/6 23/56/6

usemtl Vitamin
f 43/27/2 44/95/2 42/94/2 41/25/2
f 44/28/3 46/30/3 45/29/3 42/26/3
f 46/97/4 48/32/4 47/31/4 45/96/4
f 48/34/1 43/28/1 41/26/1 47/33/1
f 48/19/5 46/98/5 44/96/5 43/31/5
f 41/25/6 42/94/6 45/99/6 47/21/6

