# ProBuilder 5.0.6
# https://unity3d.com/unity/features/worldbuilding/probuilder
# 3/1/2023 9:20:47 PM

mtllib ./IceBox.mtl
o IceBox

g Cube
v 0 0 3
v -1 0 3
v 0 1 3
v -1 1 3
v -1 0 0
v -1 1 0
v 0 0 0
v 0 1 0
v -0.04419422 0.2122246 2.867418
v -0.9558058 0.2122246 2.867418
v -0.04419422 0.2122246 0.1325817
v -0.9558058 0.2122246 0.1325817
v -0.04419422 1 2.867418
v -0.9558058 1 2.867418
v -0.04419422 1 0.1325817
v -0.9558058 1 0.1325817
v -0.5981894 0.8018906 0.2573719
v -0.5008068 1.465909 3.166833
v -0.4086218 0.5540456 0.3075924
v -0.3112402 1.218063 3.217052
v -0.275013 0.4120087 0.335537
v -0.1776314 1.076027 3.244997
v -0.2483969 0.4300331 0.3305321
v -0.1510143 1.094051 3.239993
v -0.3389387 0.6012341 0.2944899
v -0.2415571 1.265252 3.203951
v -0.5120554 0.8602189 0.2411766
v -0.4146738 1.524237 3.150639
v -0.701622 1.108064 0.1909571
v -0.6042404 1.772082 3.100418
v -0.8352308 1.250101 0.1630125
v -0.7378492 1.914119 3.072474
v -0.8618479 1.232076 0.1680164
v -0.7644663 1.896094 3.077478
v -0.771306 1.060875 0.2040586
v -0.6739235 1.724893 3.11352
v -0.5551224 0.8310547 0.2492743
v -0.4577408 1.495073 3.158735

vt 0.7394223 0.8226692
vt 0.7394223 0.9347808
vt 0.8515338 0.8226692
vt 0.8515338 0.9347807
vt 0.7394223 0.03788903
vt 0.7394224 0.3742233
vt 0.8515338 0.03788903
vt 0.8515338 0.3742233
vt 0.7394223 0.4863347
vt 0.8515338 0.4863347
vt 0.01772351 0.6727071
vt 0.1696588 0.6727071
vt 0.01772351 0.216901
vt 0.1696588 0.216901
vt 0.1336713 0.7776287
vt 0.1336713 0.9442954
vt 0.6336715 0.7776287
vt 0.6336715 0.9442954
vt 0.8663978 0.8276239
vt 0.8663978 0.929826
vt 0.8564885 0.5011987
vt 0.8564885 0.8078052
vt 0.8564885 0.05275291
vt 0.8564885 0.3593594
vt 0.8663978 0.379178
vt 0.8663978 0.4813801
vt 0.9547164 0.8276239
vt 0.9547164 0.929826
vt 0.9448072 0.5011987
vt 0.9448072 0.8078052
vt 0.9448071 0.05275291
vt 0.9448071 0.3593594
vt 0.9547163 0.379178
vt 0.9547163 0.4813801
vt 0.5803835 0.04072332
vt 0.5803834 0.7288713
vt 0.6532222 0.04072347
vt 0.6532221 0.7288711
vt 0.6986231 0.04072347
vt 0.6986229 0.7288711
vt 0.2106692 0.04072347
vt 0.210669 0.7288713
vt 0.218167 0.04072347
vt 0.2181667 0.7288715
vt 0.2635679 0.04072365
vt 0.2635679 0.7288713
vt 0.3364065 0.04072347
vt 0.3364064 0.7288715
vt 0.409245 0.04072347
vt 0.4092449 0.7288713
vt 0.4546458 0.04072347
vt 0.4546459 0.7288713
vt 0.4621437 0.04072315
vt 0.4621439 0.7288713
vt 0.5075448 0.04072332
vt 0.5075448 0.7288711
vt 0.02526685 0.1106006
vt 0.03404006 0.1106006
vt 0.02694246 0.1632483
vt 0.06334303 0.09510616
vt 0.072116 0.0951064
vt 0.06501971 0.04245953
vt 0.02426913 0.1619805
vt 0.03136673 0.1093329
vt 0.02865567 0.1945184
vt 0.06940697 0.009922184
vt 0.03036901 0.1932508
vt 0.03308001 0.1080652
vt 0.03579107 0.1932508
vt 0.07482891 0.009922303
vt 0.03846436 0.1945184
vt 0.03575331 0.1093329
vt 0.04285097 0.1619805
vt 0.07921456 0.04245988
vt 0.0400789 0.1640316
vt 0.03298121 0.111384
vt 0.04175442 0.111384
vt 0.08088885 0.09510664
vt 0.04281324 0.1106006
vt 0.04113778 0.05795302
vt 0.0792117 0.1477534
vt 0.03675118 0.025415
vt 0.07482414 0.1802907
vt 0.031329 0.02541495
vt 0.06940202 0.1802906
vt 0.02694243 0.05795296
vt 0.06501661 0.147753

vn 0 0 1
vn -1 0 0
vn 0 0 -1
vn 1 0 0
vn 0 1 0
vn 0 -1 0
vn -0.818153 -0.5540411 0.1538316
vn -0.7678005 -0.6185752 0.1668746
vn -0.1062836 -0.9686316 0.2246255
vn 0.9706895 -0.2393163 0.0221286
vn 0.8628849 0.4857003 -0.1397314
vn 0.8181534 0.5540406 -0.1538312
vn 0.7678008 0.6185749 -0.1668744
vn 0.1062947 0.9686304 -0.2246255
vn -0.9706885 0.2393202 -0.02212979
vn -0.8628848 -0.4857005 0.1397316
vn -0.03261517 -0.2223899 -0.9744121
vn 0.03261766 0.2223879 0.9744125

usemtl DefaultHDMaterial
f 17/57/17 37/58/17 19/59/17
f 19/63/17 37/64/17 21/65/17
f 21/67/17 37/68/17 23/69/17
f 23/71/17 37/72/17 25/73/17
f 25/75/17 37/76/17 27/77/17
f 27/79/17 37/58/17 29/80/17
f 29/80/17 37/58/17 31/82/17
f 31/82/17 37/58/17 33/84/17
f 33/84/17 37/58/17 35/86/17
f 35/86/17 37/58/17 17/57/17
f 20/62/18 38/61/18 18/60/18
f 22/66/18 38/61/18 20/62/18
f 24/70/18 38/61/18 22/66/18
f 26/74/18 38/61/18 24/70/18
f 28/78/18 38/61/18 26/74/18
f 30/81/18 38/61/18 28/78/18
f 32/83/18 38/61/18 30/81/18
f 34/85/18 38/61/18 32/83/18
f 36/87/18 38/61/18 34/85/18
f 18/60/18 38/61/18 36/87/18
f 4/4/1 2/2/1 1/1/1
f 1/1/1 3/3/1 4/4/1
f 6/8/2 5/6/2 2/5/2
f 2/5/2 4/7/2 6/8/2
f 8/10/3 7/9/3 5/6/3
f 5/6/3 6/8/3 8/10/3
f 3/3/4 1/1/4 7/9/4
f 7/9/4 8/10/4 3/3/4
f 12/14/5 10/12/5 9/11/5
f 9/11/5 11/13/5 12/14/5
f 2/18/6 5/16/6 7/15/6
f 7/15/6 1/17/6 2/18/6
f 14/20/5 4/4/5 3/3/5
f 3/3/5 13/19/5 14/20/5
f 13/22/5 3/3/5 8/10/5
f 8/10/5 15/21/5 13/22/5
f 16/24/5 6/8/5 4/7/5
f 4/7/5 14/23/5 16/24/5
f 15/26/5 8/10/5 6/8/5
f 6/8/5 16/25/5 15/26/5
f 10/28/3 14/20/3 13/19/3
f 13/19/3 9/27/3 10/28/3
f 9/30/2 13/22/2 15/21/2
f 15/21/2 11/29/2 9/30/2
f 12/32/4 16/24/4 14/23/4
f 14/23/4 10/31/4 12/32/4
f 11/34/1 15/26/1 16/25/1
f 16/25/1 12/33/1 11/34/1
f 20/38/8 18/36/7 17/35/7
f 17/35/7 19/37/8 20/38/8
f 22/40/9 20/38/8 19/37/8
f 19/37/8 21/39/9 22/40/9
f 24/44/10 22/42/9 21/41/9
f 21/41/9 23/43/10 24/44/10
f 26/46/11 24/44/10 23/43/10
f 23/43/10 25/45/11 26/46/11
f 28/48/12 26/46/11 25/45/11
f 25/45/11 27/47/12 28/48/12
f 30/50/13 28/48/12 27/47/12
f 27/47/12 29/49/13 30/50/13
f 32/52/14 30/50/13 29/49/13
f 29/49/13 31/51/14 32/52/14
f 34/54/15 32/52/14 31/51/14
f 31/51/14 33/53/15 34/54/15
f 36/56/16 34/54/15 33/53/15
f 33/53/15 35/55/16 36/56/16
f 18/36/7 36/56/16 35/55/16
f 35/55/16 17/35/7 18/36/7

