# ProBuilder 5.0.6
# https://unity3d.com/unity/features/worldbuilding/probuilder
# 3/1/2023 10:38:44 PM

mtllib ./Plane.mtl
o Plane

g Plane
v 25.9541 0.0001 -38.96181
v 25.9541 0.0001 -19.48091
v 8.93705 0.0001 -38.96181
v 8.93705 0.0001 -19.48091
v 25.9541 0.0001 0
v 8.93705 0.0001 0
v -8.08 0.0001 -38.96181
v -8.08 0.0001 -19.48091
v -8.08 0.0001 0

vt 0.1026827 0.04451725
vt 0.1026827 0.505285
vt 0.5051746 0.04451725
vt 0.5051746 0.505285
vt 0.1026827 0.9660527
vt 0.5051746 0.9660527
vt 0.9076664 0.04451725
vt 0.9076664 0.505285
vt 0.9076664 0.9660527

vn 0 1 0

usemtl DefaultHDMaterial
f 3/3/1 4/4/1 2/2/1 1/1/1
f 4/4/1 6/6/1 5/5/1 2/2/1
f 7/7/1 8/8/1 4/4/1 3/3/1
f 8/8/1 9/9/1 6/6/1 4/4/1

