# ProBuilder 5.0.6
# https://unity3d.com/unity/features/worldbuilding/probuilder
# 3/1/2023 9:48:58 PM

mtllib ./VendingM2.mtl
o VendingM2

g VendingM2
v 0 0 0
v -2 0 0
v 0 3 0
v -2 3 0
v -2 0 -1
v -2 3 -1
v 0 0 -1
v 0 3 -1

vt 0.3591232 0.5064613
vt 0.5886154 0.5064613
vt 0.3591232 0.162223
vt 0.5886154 0.162223
vt 0.7033615 0.6212074
vt 0.5886154 0.6212074
vt 0.7033615 0.9654456
vt 0.5886154 0.9654456
vt 0.3591232 0.6212074
vt 0.3591232 0.9654456
vt 0.2443771 0.6212074
vt 0.2443771 0.9654456
vt 0.3591232 0.04747689
vt 0.5886154 0.04747689

vn 0 0 1
vn -1 0 0
vn 0 0 -1
vn 1 0 0
vn 0 1 0
vn 0 -1 0

usemtl DefaultHDMaterial
f 3/3/1 4/4/1 2/2/1 1/1/1
f 4/7/2 6/8/2 5/6/2 2/5/2
f 6/8/3 8/10/3 7/9/3 5/6/3
f 8/10/4 3/12/4 1/11/4 7/9/4
f 8/13/5 6/14/5 4/4/5 3/3/5
f 1/1/6 2/2/6 5/6/6 7/9/6

