# ProBuilder 5.0.6
# https://unity3d.com/unity/features/worldbuilding/probuilder
# 2023/3/2 0:21:22

mtllib ./Cube.mtl
o Cube

g Cube
v 0.5796436 0.05488924 0.06586465
v 2.384186E-07 0.05488924 0.06586465
v 0.5796436 0.1207164 0.06586465
v 2.384186E-07 0.1207164 0.06586465
v 2.384186E-07 0.05488924 -0.8135823
v 2.384186E-07 0.1207164 -0.8135823
v 0.5796436 0.05488924 -0.8135823
v 0.5796436 0.1207164 -0.8135823

vt 0.8562292 0.5337331
vt 0.5000001 0.5337331
vt 0.8562292 0.5741882
vt 0.5000001 0.5741882
vt 0.5404782 0.5337331
vt 0 0.5337331
vt 0.5404782 0.5741882
vt 0 0.5741882
vt 0.4999999 0.5337331
vt 0.1437708 0.5337331
vt 0.4999999 0.5741882
vt 0.1437708 0.5741882
vt 1 0.5337331
vt 0.4595218 0.5337331
vt 1 0.5741882
vt 0.4595218 0.5741882
vt 0.09653828 1.579593
vt 0.4527674 1.579593
vt 0.09653828 1.039115
vt 0.4527674 1.039115
vt 0.8562292 1.039115
vt 0.5000001 1.039115
vt 0.8562292 1.579593
vt 0.5000001 1.579593

vn 0 0 1
vn -1 0 0
vn 0 0 -1
vn 1 0 0
vn 0 1 0
vn 0 -1 0

usemtl DefaultHDMaterial
f 3/3/1 4/4/1 2/2/1 1/1/1
f 4/7/2 6/8/2 5/6/2 2/5/2
f 6/11/3 8/12/3 7/10/3 5/9/3
f 8/15/4 3/16/4 1/14/4 7/13/4
f 8/19/5 6/20/5 4/18/5 3/17/5
f 1/23/6 2/24/6 5/22/6 7/21/6

