# ProBuilder 5.0.6
# https://unity3d.com/unity/features/worldbuilding/probuilder
# 2023/3/2 0:21:22

mtllib ./Cylinder.mtl
o Cylinder

g Cylinder
v -0.1438337 2.384186E-07 -0.07936176
v -0.1438337 0.7347549 -0.07936176
v -0.1346074 2.384186E-07 -0.04686417
v -0.1346074 0.7347549 -0.04686417
v -0.1104526 2.384186E-07 -0.02677956
v -0.1104526 0.7347549 -0.02677956
v -0.08059566 2.384186E-07 -0.02677956
v -0.08059566 0.7347549 -0.02677956
v -0.05644087 2.384186E-07 -0.04686418
v -0.05644087 0.7347549 -0.04686418
v -0.04721457 2.384186E-07 -0.07936177
v -0.04721457 0.7347549 -0.07936177
v -0.05644087 2.384186E-07 -0.1118593
v -0.05644087 0.7347549 -0.1118593
v -0.08059566 2.384186E-07 -0.131944
v -0.08059566 0.7347549 -0.131944
v -0.1104526 2.384186E-07 -0.131944
v -0.1104526 0.7347549 -0.131944
v -0.1346074 2.384186E-07 -0.1118594
v -0.1346074 0.7347549 -0.1118594
v -0.09552414 2.384186E-07 -0.07936176
v -0.09552414 0.7347549 -0.07936176

vt 0.03254439 0.1522376
vt 0.03254439 1
vt 0.07152206 0.1522376
vt 0.07152206 1
vt 0.01196419 0.1522376
vt 0.01196419 1
vt 0.04820988 0.1522376
vt 0.04820988 1
vt 0.03851522 0.1522376
vt 0.03851522 1
vt 0.07296427 0.1522376
vt 0.07296427 1
vt 0.114208 0.1522376
vt 0.114208 1
vt 0.1504537 0.1522376
vt 0.1504537 1
vt 0.2001865 0.1522376
vt 0.2001865 1
vt 0.2391642 0.1522376
vt 0.2391642 1
vt 0.2689207 0.1522376
vt 0.2689207 1
vt 0.3078983 0.1522376
vt 0.3078983 1
vt 0.2985458 0.1522376
vt 0.2985458 1
vt 0.3347915 0.1522376
vt 0.3347915 1
vt 0.2589473 0.1522376
vt 0.2589473 1
vt 0.2933964 0.1522376
vt 0.2933964 1
vt 0.1666139 0.1522376
vt 0.1666139 1
vt 0.2028596 0.1522376
vt 0.2028596 1
vt 0.08421632 0.1522376
vt 0.08421632 1
vt 0.123194 0.1522376
vt 0.123194 1
vt 0 0.06066951
vt 0.05573974 0.06066951
vt 0.01064534 0.09816533
vt 0.3319116 0.06066951
vt 0.2761719 0.06066951
vt 0.3212663 0.09816533
vt 0.03851522 0.121339
vt 0.2933964 0.121339
vt 0.07296427 0.121339
vt 0.2589473 0.121339
vt 0.1008341 0.09816533
vt 0.2310775 0.09816533
vt 0.1114795 0.0606695
vt 0.2204321 0.0606695
vt 0.1008341 0.0231737
vt 0.2310775 0.0231737
vt 0.07296427 0
vt 0.2589473 0
vt 0.03851521 0
vt 0.2933964 0
vt 0.01064534 0.02317368
vt 0.3212663 0.02317368

vn -1 0 1.549007E-08
vn -0.8381652 0 0.5454164
vn -0.339915 0 0.9404562
vn 0.3399151 0 0.9404562
vn 0.8381653 0 0.5454163
vn 1 0 -7.745033E-08
vn 0.8381653 0 -0.5454163
vn 0.3399152 0 -0.9404562
vn -0.3399149 0 -0.9404562
vn -0.8381652 0 -0.5454164
vn 0 -1 0
vn 0 1 0

usemtl DefaultHDMaterial
f 1/41/11 21/42/11 3/43/11
f 3/43/11 21/42/11 5/47/11
f 5/47/11 21/42/11 7/49/11
f 7/49/11 21/42/11 9/51/11
f 9/51/11 21/42/11 11/53/11
f 11/53/11 21/42/11 13/55/11
f 13/55/11 21/42/11 15/57/11
f 15/57/11 21/42/11 17/59/11
f 17/59/11 21/42/11 19/61/11
f 19/61/11 21/42/11 1/41/11
f 4/46/12 22/45/12 2/44/12
f 6/48/12 22/45/12 4/46/12
f 8/50/12 22/45/12 6/48/12
f 10/52/12 22/45/12 8/50/12
f 12/54/12 22/45/12 10/52/12
f 14/56/12 22/45/12 12/54/12
f 16/58/12 22/45/12 14/56/12
f 18/60/12 22/45/12 16/58/12
f 20/62/12 22/45/12 18/60/12
f 2/44/12 22/45/12 20/62/12
f 4/4/2 2/2/1 1/1/1
f 1/1/1 3/3/2 4/4/2
f 6/8/3 4/6/2 3/5/2
f 3/5/2 5/7/3 6/8/3
f 8/12/4 6/10/3 5/9/3
f 5/9/3 7/11/4 8/12/4
f 10/16/5 8/14/4 7/13/4
f 7/13/4 9/15/5 10/16/5
f 12/20/6 10/18/5 9/17/5
f 9/17/5 11/19/6 12/20/6
f 14/24/7 12/22/6 11/21/6
f 11/21/6 13/23/7 14/24/7
f 16/28/8 14/26/7 13/25/7
f 13/25/7 15/27/8 16/28/8
f 18/32/9 16/30/8 15/29/8
f 15/29/8 17/31/9 18/32/9
f 20/36/10 18/34/9 17/33/9
f 17/33/9 19/35/10 20/36/10
f 2/40/1 20/38/10 19/37/10
f 19/37/10 1/39/1 2/40/1

