# ProBuilder 5.0.6
# https://unity3d.com/unity/features/worldbuilding/probuilder
# 2023/3/2 0:23:41

mtllib ./regi.mtl
o regi

g Cube
v 3.252325 1.109779 12.44
v 0.01268768 1.109779 12.44
v 3.252325 1.243254 12.44
v 0.0126877 1.243255 12.44
v 0.01268768 1.109779 12.32755
v 0.0126877 1.243255 12.32755
v 3.252325 1.109779 12.32755
v 3.252325 1.243254 12.32755

vt 1 0.01735528
vt 0.5 0.01735529
vt 1 0.03795568
vt 0.5 0.03795569
vt 0.4826447 0.01735529
vt 0.4826447 0.03795569
vt 0 0.01735528
vt 0 0.03795568
vt 0.5173553 0.01735528
vt 0.5173553 0.03795568
vt 0 0
vt 0.5 0
vt 1 0

vn 0 0 1
vn -1 1.217685E-07 0
vn 0 0 -1
vn 1 -1.217685E-07 0
vn 1.263681E-07 1 0
vn -1.263681E-07 -1 0

usemtl DefaultHDMaterial
f 3/3/1 4/4/1 2/2/1 1/1/1
f 4/4/2 6/6/2 5/5/2 2/2/2
f 6/4/3 8/8/3 7/7/3 5/2/3
f 8/10/4 3/4/4 1/2/4 7/9/4
f 8/11/5 6/12/5 4/2/5 3/7/5
f 1/1/6 2/2/6 5/12/6 7/13/6

g Cube
v 2.000009 0 12.25
v 2 0 9.000004
v 2.000009 1 12.25
v 2 1 9.000004
v 3 0 9.000001
v 3 1 9.000001
v 3.000009 0 12.25
v 3.000009 1 12.25

vt 2.071095 0
vt 1.637762 0
vt 2.071095 0.1333333
vt 1.637762 0.1333333
vt 0.5666666 0
vt 0.5 0
vt 0.5666666 0.06666664
vt 0.5 0.06666664
vt 0.4333332 -1.470112
vt -4.470348E-08 -1.470112
vt 0.4333332 -1.336779
vt -4.470348E-08 -1.336779
vt 1 0
vt 1 0.1333333
vt 2.094712 -0.1948341
vt 1.661379 -0.1948341
vt 2.094712 -0.06150078
vt 1.661379 -0.06150078

vn -1 0 2.920628E-06
vn -2.920628E-06 0 -1
vn 1 0 -2.920628E-06
vn 2.920628E-06 0 1
vn 0 1 0
vn 0 -1 0

usemtl DefaultHDMaterial
f 11/16/7 12/17/7 10/15/7 9/14/7
f 12/20/8 14/21/8 13/19/8 10/18/8
f 14/24/9 16/25/9 15/23/9 13/22/9
f 16/27/10 11/16/10 9/14/10 15/26/10
f 16/23/11 14/22/11 12/24/11 11/25/11
f 9/30/12 10/31/12 13/29/12 15/28/12

g Cube
v 4.768372E-07 1 12.44
v 4.899239E-07 1.109779 12.44
v 3.250002 0.9999996 12.44
v 3.250002 1.109778 12.44
v 4.899239E-07 1.109779 11.2351
v 3.250002 1.109778 11.2351
v 4.768372E-07 1 11.2351
v 3.250002 0.9999996 11.2351

vt 1.074445 0.5420535
vt 2.655708 0.5420535
vt 1.074445 1.271587
vt 2.655708 1.271587
vt 1.605905 0.2704666
vt 1.605905 1
vt 0.2951087 0.2704666
vt 0.2704665 0.2704666
vt 0.2951087 1
vt 0.2704665 1
vt -0.1380342 0.2704666
vt -0.4085006 0.2704666
vt -0.1380342 1
vt -0.4085006 1
vt 0.2704665 0
vt 0.2951087 0
vt 0.2458243 0
vt 0.2458243 0.2704664

vn 0 0 1
vn 1.192093E-07 1 0
vn 0 0 -1
vn -1.192093E-07 -1 0
vn 1 -1.192093E-07 0
vn -1 1.192093E-07 0

usemtl DefaultHDMaterial
f 19/34/13 20/35/13 18/33/13 17/32/13
f 20/35/14 22/37/14 21/36/14 18/33/14
f 22/40/15 24/41/15 23/39/15 21/38/15
f 24/44/16 19/45/16 17/43/16 23/42/16
f 24/46/17 22/47/17 20/38/17 19/39/17
f 17/39/18 18/49/18 21/48/18 23/46/18

g Cylinder
v 3.243845 1.301535 9.610604
v 2.741371 1.064053 10.09122
v 3.264938 1.308444 9.63607
v 2.762465 1.070962 10.11668
v 3.274421 1.330146 9.656709
v 2.771948 1.092664 10.13732
v 3.268672 1.358351 9.664636
v 2.766199 1.120869 10.14525
v 3.249887 1.382287 9.656823
v 2.747414 1.144805 10.13743
v 3.225241 1.39281 9.636255
v 2.722767 1.155328 10.11687
v 3.204147 1.385901 9.610788
v 2.701674 1.148419 10.0914
v 3.194664 1.3642 9.59015
v 2.69219 1.126718 10.07076
v 3.200413 1.335994 9.582224
v 2.697939 1.098512 10.06283
v 3.219198 1.312058 9.590036
v 2.716725 1.074576 10.07065
v 3.234543 1.347173 9.623429
v 2.732069 1.109691 10.10404

vt 0.03254439 0.1522376
vt 0.03254439 1
vt 0.07152206 0.1522376
vt 0.07152206 1
vt 0.01196419 0.1522376
vt 0.01196419 1
vt 0.04820988 0.1522376
vt 0.04820988 1
vt 0.03851522 0.1522376
vt 0.03851522 1
vt 0.07296427 0.1522376
vt 0.07296427 1
vt 0.114208 0.1522376
vt 0.114208 1
vt 0.1504537 0.1522376
vt 0.1504537 1
vt 0.2001865 0.1522376
vt 0.2001865 1
vt 0.2391642 0.1522376
vt 0.2391642 1
vt 0.2689207 0.1522376
vt 0.2689207 1
vt 0.3078983 0.1522376
vt 0.3078983 1
vt 0.2985458 0.1522376
vt 0.2985458 1
vt 0.3347915 0.1522376
vt 0.3347915 1
vt 0.2589473 0.1522376
vt 0.2589473 1
vt 0.2933964 0.1522376
vt 0.2933964 1
vt 0.1666139 0.1522376
vt 0.1666139 1
vt 0.2028596 0.1522376
vt 0.2028596 1
vt 0.08421632 0.1522376
vt 0.08421632 1
vt 0.123194 0.1522376
vt 0.123194 1
vt 0 0.06066951
vt 0.05573974 0.06066951
vt 0.01064534 0.09816533
vt 0.3319116 0.06066951
vt 0.2761719 0.06066951
vt 0.3212663 0.09816533
vt 0.03851522 0.121339
vt 0.2933964 0.121339
vt 0.07296427 0.121339
vt 0.2589473 0.121339
vt 0.1008341 0.09816533
vt 0.2310775 0.09816533
vt 0.1114795 0.0606695
vt 0.2204321 0.0606695
vt 0.1008341 0.0231737
vt 0.2310775 0.0231737
vt 0.07296427 0
vt 0.2589473 0
vt 0.03851521 0
vt 0.2933964 0
vt 0.01064534 0.02317368
vt 0.3212663 0.02317368

vn 0.1925473 -0.944691 -0.2654892
vn 0.5452192 -0.8221386 0.1637811
vn 0.7272888 -0.3734149 0.575858
vn 0.5963894 0.2688144 0.7563456
vn 0.2224462 0.7614757 0.6088287
vn -0.1925474 0.944691 0.2654892
vn -0.5452192 0.8221387 -0.163781
vn -0.7272888 0.3734151 -0.5758579
vn -0.5963894 -0.2688143 -0.7563456
vn -0.2224463 -0.7614757 -0.6088287
vn 0.6838655 0.3232126 -0.6541114
vn -0.6838655 -0.3232126 0.6541114

usemtl DefaultHDMaterial
f 25/90/29 45/91/29 27/92/29
f 27/92/29 45/91/29 29/96/29
f 29/96/29 45/91/29 31/98/29
f 31/98/29 45/91/29 33/100/29
f 33/100/29 45/91/29 35/102/29
f 35/102/29 45/91/29 37/104/29
f 37/104/29 45/91/29 39/106/29
f 39/106/29 45/91/29 41/108/29
f 41/108/29 45/91/29 43/110/29
f 43/110/29 45/91/29 25/90/29
f 28/95/30 46/94/30 26/93/30
f 30/97/30 46/94/30 28/95/30
f 32/99/30 46/94/30 30/97/30
f 34/101/30 46/94/30 32/99/30
f 36/103/30 46/94/30 34/101/30
f 38/105/30 46/94/30 36/103/30
f 40/107/30 46/94/30 38/105/30
f 42/109/30 46/94/30 40/107/30
f 44/111/30 46/94/30 42/109/30
f 26/93/30 46/94/30 44/111/30
f 28/53/20 26/51/19 25/50/19
f 25/50/19 27/52/20 28/53/20
f 30/57/21 28/55/20 27/54/20
f 27/54/20 29/56/21 30/57/21
f 32/61/22 30/59/21 29/58/21
f 29/58/21 31/60/22 32/61/22
f 34/65/23 32/63/22 31/62/22
f 31/62/22 33/64/23 34/65/23
f 36/69/24 34/67/23 33/66/23
f 33/66/23 35/68/24 36/69/24
f 38/73/25 36/71/24 35/70/24
f 35/70/24 37/72/25 38/73/25
f 40/77/26 38/75/25 37/74/25
f 37/74/25 39/76/26 40/77/26
f 42/81/27 40/79/26 39/78/26
f 39/78/26 41/80/27 42/81/27
f 44/85/28 42/83/27 41/82/27
f 41/82/27 43/84/28 44/85/28
f 26/89/19 44/87/28 43/86/28
f 43/86/28 25/88/19 26/89/19

g Cube (1)
v 3.249 1 11.237
v 3.249 1.109779 11.237
v 3.249009 1 8.736999
v 3.249009 1.109779 8.736999
v 1.99192 1.109779 11.237
v 1.991929 1.109779 8.736996
v 1.99192 1 11.237
v 1.991929 1 8.736996

vt 0.3345895 0.3345897
vt 0.3053704 0.3345897
vt 0.3345895 1
vt 0.3053704 1
vt -1.064674 0.3345897
vt -1.399263 0.3345895
vt -1.064673 1
vt -1.399262 0.9999998
vt 0.3638087 0.3345892
vt 0.3638087 0.9999993
vt 0.3345895 0.9999993
vt -0.03930852 -1.123714
vt -0.3738979 -1.123714
vt -0.03930917 -0.458304
vt -0.3738984 -0.4583038
vt 0.3345895 1.173981E-06
vt 0.3638087 1.173981E-06
vt 0.3053704 0

vn 1 0 3.60012E-06
vn -1.778066E-08 1 -8.940757E-09
vn -1 0 -3.743171E-06
vn 1.778068E-08 -1 6.655614E-14
vn 2.042776E-06 0 -1
vn -2.422097E-06 0 1

usemtl DefaultHDMaterial
f 49/114/31 50/115/31 48/113/31 47/112/31
f 50/118/32 52/119/32 51/117/32 48/116/32
f 52/121/33 54/122/33 53/112/33 51/120/33
f 54/125/34 49/126/34 47/124/34 53/123/34
f 54/127/35 52/128/35 50/120/35 49/112/35
f 47/112/36 48/113/36 51/129/36 53/127/36

g Cube (1)
v 3.14001 1.109779 12.32749
v 3.14 1.109779 8.73338
v 3.14001 1.243254 12.32749
v 3.14 1.243255 8.73338
v 3.25245 1.109779 8.733383
v 3.25245 1.243255 8.733383
v 3.252459 1.109779 12.32749
v 3.252459 1.243254 12.32749

vt 1 0.01738307
vt 0.4444085 0.01738307
vt 1 0.03801628
vt 0.4444085 0.03801628
vt 0.5000013 0.01738307
vt 0.4826183 0.01738307
vt 0.5000013 0.03801628
vt 0.4826183 0.03801628
vt 0.5555911 0.01738307
vt 0 0.01738307
vt 0.5555911 0.03801628
vt 0 0.03801628
vt 0.5173829 0.01738307
vt 0.5173829 0.03801628
vt 0 1.474229E-07
vt 0.5555911 0
vt 1 1.474229E-07
vt 0.4444089 0

vn -1 2.520511E-14 2.655284E-06
vn 2.252208E-05 1.217685E-07 -1
vn 1 -2.520513E-14 -2.655283E-06
vn 2.920628E-06 -1.217685E-07 1
vn 3.431625E-13 1 1.176225E-07
vn -3.431624E-13 -1 -1.176225E-07

usemtl DefaultHDMaterial
f 57/132/37 58/133/37 56/131/37 55/130/37
f 58/136/38 60/137/38 59/135/38 56/134/38
f 60/140/39 62/141/39 61/139/39 59/138/39
f 62/143/40 57/136/40 55/134/40 61/142/40
f 62/144/41 60/145/41 58/138/41 57/139/41
f 55/130/42 56/131/42 59/147/42 61/146/42

g Cube (2)
v 3.140399 1.109779 8.845
v 1.986221 1.109779 8.845
v 3.140399 1.243254 8.845
v 1.986221 1.243255 8.845
v 1.986221 1.109779 8.732551
v 1.986221 1.243255 8.732551
v 3.140399 1.109779 8.732551
v 3.140399 1.243254 8.732551

vt 1 0.04895922
vt 0.4974839 0.04895933
vt 1 0.107073
vt 0.4974839 0.1070731
vt 0.5 0.04895933
vt 0.4510407 0.04895933
vt 0.5 0.1070731
vt 0.4510407 0.1070731
vt 0.5025161 0.04895933
vt 0 0.04895922
vt 0.5025161 0.1070731
vt 0 0.107073
vt 0.5489593 0.04895922
vt 0.5489593 0.107073
vt 0 0
vt 0.5025161 0
vt 1 0
vt 0.4974839 0

vn 0 0 1
vn -1 1.217685E-07 0
vn 0 0 -1
vn 1 -1.217685E-07 0
vn 3.283386E-07 1 0
vn -3.283386E-07 -1 0

usemtl DefaultHDMaterial
f 65/150/43 66/151/43 64/149/43 63/148/43
f 66/154/44 68/155/44 67/153/44 64/152/44
f 68/158/45 70/159/45 69/157/45 67/156/45
f 70/161/46 65/154/46 63/152/46 69/160/46
f 70/162/47 68/163/47 66/156/47 65/157/47
f 63/148/48 64/149/48 67/165/48 69/164/48

g Cube
v 1.192093E-07 2.384186E-07 12.25
v 2.384186E-07 1 12.25
v 2.000001 -8.526513E-14 12.25
v 2.000001 1 12.25
v 2.384186E-07 1 11.25
v 2.000001 1 11.25
v 1.192093E-07 2.384186E-07 11.25
v 2.000001 -8.526513E-14 11.25

vt -0.4800746 -0.1476015
vt -0.9800744 -0.1476015
vt -0.4800746 0.8523984
vt -0.9800744 0.8523984
vt 0.7815493 -1.10406
vt 0.2815495 -1.10406
vt 0.7815493 -0.1040598
vt 0.2815495 -0.1040598
vt 1.430997 -1.086348
vt 0.9309967 -1.086348
vt 1.430997 -0.08634764
vt 0.9309967 -0.08634764
vt -0.4859787 -1.186717
vt -0.9859784 -1.186717
vt -0.4859787 -0.1867167
vt -0.9859784 -0.1867167
vt 1.03727 0.4999998
vt 1.53727 0.4999998
vt 1.03727 2.980232E-08
vt 1.53727 2.980232E-08
vt 2.105905 -1.045019
vt 1.605905 -1.045019
vt 2.105905 -0.5450195
vt 1.605905 -0.5450195

vn 0 0 1
vn 1.192093E-07 1 0
vn 0 0 -1
vn -1.192093E-07 -1 0
vn 1 -1.192093E-07 0
vn -1 1.192093E-07 0

usemtl DefaultHDMaterial
f 73/168/49 74/169/49 72/167/49 71/166/49
f 74/172/50 76/173/50 75/171/50 72/170/50
f 76/176/51 78/177/51 77/175/51 75/174/51
f 78/180/52 73/181/52 71/179/52 77/178/52
f 78/184/53 76/185/53 74/183/53 73/182/53
f 71/188/54 72/189/54 75/187/54 77/186/54

g Cube
v 2.993807 1.105889 11.14065
v 2.464555 1.105889 11.37703
v 2.993807 1.171716 11.14065
v 2.464555 1.171716 11.37703
v 2.105905 1.105889 10.57404
v 2.105905 1.171716 10.57404
v 2.635157 1.105889 10.33766
v 2.635157 1.171716 10.33766

vt 0.8562292 0.5337331
vt 0.5000001 0.5337331
vt 0.8562292 0.5741882
vt 0.5000001 0.5741882
vt 0.5404782 0.5337331
vt 0 0.5337331
vt 0.5404782 0.5741882
vt 0 0.5741882
vt 0.4999999 0.5337331
vt 0.1437708 0.5337331
vt 0.4999999 0.5741882
vt 0.1437708 0.5741882
vt 1 0.5337331
vt 0.4595218 0.5337331
vt 1 0.5741882
vt 0.4595218 0.5741882
vt 0.09653828 1.579593
vt 0.4527674 1.579593
vt 0.09653828 1.039115
vt 0.4527674 1.039115
vt 0.8562292 1.039115
vt 0.5000001 1.039115
vt 0.8562292 1.579593
vt 0.5000001 1.579593

vn 0.407814 7.105427E-15 0.9130651
vn -0.9130651 1.217685E-07 0.407814
vn -0.407814 -7.105427E-15 -0.9130651
vn 0.9130651 -1.217685E-07 -0.407814
vn 1.111825E-07 1 -4.965888E-08
vn -1.111825E-07 -1 4.965888E-08

usemtl DefaultHDMaterial
f 81/192/55 82/193/55 80/191/55 79/190/55
f 82/196/56 84/197/56 83/195/56 80/194/56
f 84/200/57 86/201/57 85/199/57 83/198/57
f 86/204/58 81/205/58 79/203/58 85/202/58
f 86/208/59 84/209/59 82/207/59 81/206/59
f 79/212/60 80/213/60 83/211/60 85/210/60

g Cube (1)
v 2.78188 1.175691 11.00587
v 2.50524 1.175691 11.12943
v 2.78188 1.210098 11.00587
v 2.50524 1.210098 11.12943
v 2.317773 1.175691 10.70971
v 2.317773 1.210098 10.70971
v 2.594414 1.175691 10.58615
v 2.594414 1.210098 10.58615

vt 0.8562292 0.5337331
vt 0.5000001 0.5337331
vt 0.8562292 0.5741882
vt 0.5000001 0.5741882
vt 0.5404782 0.5337331
vt 0 0.5337331
vt 0.5404782 0.5741882
vt 0 0.5741882
vt 0.4999999 0.5337331
vt 0.1437708 0.5337331
vt 0.4999999 0.5741882
vt 0.1437708 0.5741882
vt 1 0.5337331
vt 0.4595218 0.5337331
vt 1 0.5741882
vt 0.4595218 0.5741882
vt -0.2931299 1.585497
vt 0.06309917 1.585497
vt -0.2931299 1.045019
vt 0.06309917 1.045019
vt -0.05299665 -0.3188193
vt -0.4092258 -0.3188193
vt -0.05299665 0.2216589
vt -0.4092258 0.2216589

vn 0.2131643 3.714007E-15 0.4772591
vn -0.4772591 6.364837E-08 0.2131643
vn -0.2131643 -3.714007E-15 -0.4772591
vn 0.4772591 -6.364837E-08 -0.2131643
vn 5.811511E-08 0.5227 -2.59567E-08
vn -5.811511E-08 -0.5227 2.59567E-08

usemtl DefaultHDMaterial
f 89/216/61 90/217/61 88/215/61 87/214/61
f 90/220/62 92/221/62 91/219/62 88/218/62
f 92/224/63 94/225/63 93/223/63 91/222/63
f 94/228/64 89/229/64 87/227/64 93/226/64
f 94/232/65 92/233/65 90/231/65 89/230/65
f 87/236/66 88/237/66 91/235/66 93/234/66

